<svg width="138" height="117" xmlns="http://www.w3.org/2000/svg" xmlns:xlink="http://www.w3.org/1999/xlink" xml:space="preserve" overflow="hidden"><defs><clipPath id="clip0"><rect x="423" y="199" width="138" height="117"/></clipPath></defs><g clip-path="url(#clip0)" transform="translate(-423 -199)"><path d="M2077.5 489.533C2078.68 489.545 2079.66 488.596 2079.66 487.414 2079.66 487.366 2079.66 487.318 2079.66 487.27 2079.66 485.665 2078.7 484.898 2076.7 484.898L2073.49 484.898 2073.49 493.301 2074.7 493.301 2074.7 489.638 2076.18 489.638 2076.22 489.683 2078.52 493.301 2079.82 493.301 2077.34 489.556ZM2076.11 488.691 2074.7 488.691 2074.7 485.85 2076.49 485.85C2077.4 485.85 2078.45 486 2078.45 487.2 2078.45 488.58 2077.38 488.691 2076.09 488.691" fill="#185A6F" transform="matrix(1 0 0 1.00435 -1523.89 -183.214)"/><path d="M1710.11 200.722 1693 200.722 1693 173.913C1693 167.52 1692.88 159.29 1684.09 159.29 1675.18 159.29 1673.81 166.255 1673.81 173.447L1673.81 200.721 1656.69 200.721 1656.69 145.589 1673.13 145.589 1673.13 153.124 1673.36 153.124C1676.71 147.394 1682.94 143.972 1689.57 144.218 1706.92 144.218 1710.12 155.631 1710.12 170.478ZM1637.38 138.053C1631.89 138.054 1627.44 133.607 1627.44 128.12 1627.44 122.634 1631.88 118.185 1637.37 118.184 1642.86 118.183 1647.31 122.63 1647.31 128.117 1647.31 133.604 1642.86 138.052 1637.38 138.053M1645.93 200.722 1628.8 200.722 1628.8 145.589 1645.93 145.589ZM1718.65 102.286 1620.2 102.286C1615.54 102.234 1611.73 105.961 1611.67 110.614L1611.67 209.476C1611.72 214.133 1615.54 217.863 1620.2 217.813L1718.65 217.813C1723.31 217.872 1727.14 214.141 1727.21 209.476L1727.21 110.607C1727.14 105.945 1723.31 102.218 1718.65 102.279" fill="#185A6F" transform="matrix(1 0 0 1.00435 -1187.99 96.2762)"/><path d="M2062.4 471.174C2058.05 471.215 2054.55 474.776 2054.59 479.127 2054.62 483.479 2058.19 486.972 2062.54 486.931 2066.89 486.888 2070.39 483.327 2070.35 478.976 2070.3 474.685 2066.84 471.215 2062.54 471.174L2062.4 471.174M2062.4 486.029C2058.58 486.093 2055.43 483.051 2055.37 479.236 2055.3 475.422 2058.35 472.278 2062.17 472.214 2065.98 472.149 2069.12 475.192 2069.17 479.006 2069.17 479.045 2069.17 479.083 2069.17 479.122 2069.26 482.854 2066.3 485.945 2062.58 486.025L2062.4 486.025" fill="#185A6F" transform="matrix(1 0 0 1.00435 -1510.02 -173.19)"/></g></svg>